<svg id="Layer_1" data-name="Layer 1" xmlns="http://www.w3.org/2000/svg" xmlns:xlink="http://www.w3.org/1999/xlink" viewBox="0 0 1000 1000"><defs><style>.cls-1{fill:url(#radial-gradient);}</style><radialGradient id="radial-gradient" cx="591.87" cy="-8077.79" r="10042.48" gradientTransform="matrix(0.21, -0.03, -0.02, -0.13, -131.45, 77.07)" gradientUnits="userSpaceOnUse"><stop offset="0" stop-color="#fed576"/><stop offset="0.26" stop-color="#f47133"/><stop offset="0.61" stop-color="#bc3081"/><stop offset="1" stop-color="#4c63d2"/></radialGradient></defs><path class="cls-1" d="M500.44,246.55A252.2,252.2,0,0,0,425,258l-23.35,8.57-22.23,10.73-21,12.77-19.6,14.66-18.08,16.43-16.45,18.07L289.6,358.83l-12.78,21L266.08,402q-4.84,11.38-8.59,23.33t-6.29,24.31a254.67,254.67,0,0,0-3.87,25.18,252,252,0,0,0-1.32,25.9,253.16,253.16,0,0,0,5.19,51.08,250.48,250.48,0,0,0,6.29,24.32q3.74,11.93,8.59,23.33l10.74,22.2,12.78,21,14.68,19.58,16.45,18.07,18.08,16.43,19.6,14.66,21,12.77,22.23,10.73L425,743.43l24.34,6.28a252.14,252.14,0,0,0,25.2,3.87,255.25,255.25,0,0,0,51.85,0,252.14,252.14,0,0,0,25.2-3.87l24.34-6.28,23.35-8.58,22.23-10.73,21-12.77,19.6-14.66,18.09-16.43,16.45-18.07,14.67-19.58,12.78-21,10.75-22.2,8.58-23.33a250.58,250.58,0,0,0,6.29-24.32l3.88-25.18a254.85,254.85,0,0,0,0-51.81,252.69,252.69,0,0,0-10.17-49.49L734.8,402l-10.75-22.2-12.78-21L696.6,339.25l-16.45-18.07-18.09-16.43-19.6-14.66-21-12.77-22.23-10.73L575.9,258l-24.34-6.28-25.2-3.87a254.91,254.91,0,0,0-25.92-1.32Zm0,87.73a169.57,169.57,0,0,1,17.11.85l16.58,2.51,16,4.08,15.34,5.57,14.57,7,13.71,8.3,12.81,9.55,11.81,10.72,10.72,11.8,9.57,12.8L647,421.16l7,14.57q3.15,7.47,5.58,15.31a164.36,164.36,0,0,1,4.08,16c1.1,5.44,1.91,11,2.5,16.59l.86,17.11a169.51,169.51,0,0,1-.86,17.1,167,167,0,0,1-2.5,16.59q-1.67,8.16-4.08,16L654,565.75l-7,14.56L638.66,594l-9.57,12.8-10.72,11.8-11.81,10.71-12.81,9.55L580,647.21l-14.57,7-15.34,5.57-16,4.08-16.58,2.5a172.83,172.83,0,0,1-34.24,0l-16.57-2.5q-8.16-1.67-16-4.08l-15.33-5.57-14.58-7-13.7-8.31-12.82-9.55-11.81-10.71-10.72-11.8L362.2,594l-8.31-13.73-7-14.56-5.58-15.32-4.08-16-2.5-16.59c-.57-5.68-.86-11.39-.86-17.1s.29-11.42.86-17.11a167.41,167.41,0,0,1,2.5-16.59q1.65-8.09,4.09-16l5.57-15.32,7-14.57,8.32-13.72,9.56-12.8,10.72-11.8,11.82-10.71,12.81-9.56,13.7-8.3,14.58-7q7.53-3.17,15.33-5.57l16-4.08q8.17-1.65,16.58-2.51t17.12-.85Z"/><path class="cls-1" d="M765.18,174.24a60.87,60.87,0,0,0-12,1.22,59.44,59.44,0,0,0-5.87,1.51,58.8,58.8,0,0,0-5.69,2.09c-1.86.79-3.68,1.68-5.45,2.65s-3.49,2-5.16,3.19a61.1,61.1,0,0,0-9.25,7.84,60.41,60.41,0,0,0-7.52,9.54q-1.63,2.57-3,5.28c-.91,1.82-1.74,3.67-2.47,5.57s-1.37,3.82-1.91,5.78-1,4-1.33,6-.58,4-.73,6c-.1,1.44-.15,2.88-.15,4.31q0,3.06.3,6.1c.2,2,.51,4,.91,6a59.44,59.44,0,0,0,1.5,5.91c.59,1.94,1.29,3.85,2.07,5.73s1.67,3.7,2.64,5.49a60.13,60.13,0,0,0,3.17,5.2q1.71,2.5,3.66,4.85T723,279a61,61,0,0,0,20.26,13.1q2.82,1.1,5.75,1.92t5.9,1.33c2,.35,4,.59,6,.74,1.42.1,2.85.15,4.28.15q3,0,6.05-.3a60.57,60.57,0,0,0,6-.92,59.39,59.39,0,0,0,5.87-1.5,60.53,60.53,0,0,0,5.69-2.09c1.86-.8,3.68-1.68,5.45-2.66a58.09,58.09,0,0,0,5.16-3.18q2.5-1.72,4.83-3.69t4.43-4.16a62,62,0,0,0,7.52-9.54q1.64-2.56,3-5.28c.91-1.82,1.74-3.67,2.47-5.57a58.34,58.34,0,0,0,1.91-5.78,60.8,60.8,0,0,0,1.33-6c.34-2,.59-4,.73-6q.15-2.16.15-4.32,0-3-.3-6.08a60.89,60.89,0,0,0-.91-6q-.6-3-1.49-5.91c-.6-1.94-1.3-3.85-2.08-5.72s-1.67-3.71-2.64-5.5-2-3.51-3.16-5.19-2.37-3.3-3.67-4.86-2.68-3-4.13-4.46a57.84,57.84,0,0,0-4.55-4,59,59,0,0,0-4.92-3.55c-1.71-1.09-3.46-2.11-5.26-3a60.44,60.44,0,0,0-11.27-4.41,60.08,60.08,0,0,0-5.91-1.34c-2-.34-4-.59-6-.73-1.43-.1-2.86-.16-4.29-.16Z"/><path class="cls-1" d="M452.19,3.47c-27.67,0-52.37.07-74.55.38l-59.47,1.6C300.55,6.21,285,7.21,271,8.5c-7,.64-13.58,1.36-19.83,2.16q-8.91,1.13-17.78,2.61c-5.62,1-11,2-16.08,3.11s-10,2.34-14.73,3.64-9.18,2.67-13.72,4.19S180.1,27.3,175.82,29c-8.57,3.39-16.92,7.2-25.51,11.46-6.62,3.29-12.73,6.61-18.54,10.13s-11.31,7.24-16.7,11.28-10.89,8.64-16,13.33c-5.36,4.88-10.83,10.26-16.52,16.26C75.38,99,69.17,105.94,63.65,112.8c-2.76,3.43-5.34,6.82-7.77,10.23s-4.7,6.8-6.89,10.3-4.22,7-6.19,10.65-3.87,7.47-5.65,11.28c-3.62,7.79-7,16.18-10.39,25.54Q23,191.2,20,201.83c-2,7.25-3.81,14.83-5.41,23s-3,17-4.22,26.78q-2,16-3.17,32.15C6.34,295.6,5.6,308.6,5,323.07l-1.43,48.1L2.79,429.8l-.22,70.88.65,103.06,2,78.09,1.57,30.5,2,25.28q.95,10.21,2.36,20.38c.87,6,1.79,11.28,2.78,15.84q3,13.9,7.16,27.53,3.94,13,9,25.69,5,12.38,10.9,23.88T53.83,873a240.66,240.66,0,0,0,14.73,20.35A243.37,243.37,0,0,0,85.24,912a250.53,250.53,0,0,0,18.64,16.93q9.93,8.13,20.62,15.26c6.61,4.42,13.15,8.46,19.73,12.18s13.23,7.08,20.05,10.14,13.83,5.82,21.14,8.3,14.93,4.69,23,6.64,16.58,3.68,25.6,5.18,18.66,2.78,29,3.89,21.29,2,33.1,2.78,24.43,1.38,38,1.87c20.95.76,52.66,1.2,89.23,1.37l118.39-.24,112.11-1.57,42.62-1.2,27.77-1.43c6-.48,11.8-1.06,17.42-1.73s11.18-1.44,16.59-2.31,10.69-1.85,15.88-2.93,10.24-2.27,15.31-3.58,10-2.73,14.88-4.27,9.75-3.2,14.58-5,9.65-3.71,14.41-5.74,9.57-4.22,14.37-6.53c7.38-3.55,13.31-6.51,18.52-9.4a129.35,129.35,0,0,0,14.13-9,164.73,164.73,0,0,0,14-11.71c5.1-4.69,10.87-10.35,18-17.51,6.29-6.29,11.59-11.75,16.16-16.72s8.43-9.44,11.81-13.75a148.58,148.58,0,0,0,9-12.75c2.7-4.31,5.18-8.78,7.72-13.73,3.81-7.46,7.2-14.37,10.24-21q4.42-9.63,8.07-19.6t6.22-20.06c1.8-7,3.35-14.35,4.69-22.43s2.47-16.88,3.45-26.7,1.82-20.68,2.55-32.88l1.94-41,1.67-50.92,1.2-56.73.45-59.32-1.06-116.51L995,336.14l-2-44.81-2.42-34.93c-.88-9.72-1.83-17.38-2.84-22.55q-1.66-8.58-3.73-17.08-2-8.27-4.42-16.42-2.34-7.95-5.09-15.77t-5.74-15.12c-2-4.93-4.18-9.74-6.44-14.46s-4.64-9.31-7.13-13.8-5.08-8.88-7.79-13.15-5.54-8.44-8.48-12.5-6-8-9.15-11.84-6.43-7.56-9.82-11.18S913.06,85.4,909.46,82s-7.34-6.69-11.17-9.87-7.8-6.26-11.85-9.21-8.26-5.83-12.52-8.55-8.71-5.39-13.18-7.89-9.18-5-13.87-7.23c-7.78-3.78-15-7.14-22-10.11s-14-5.58-21.22-7.87a226,226,0,0,0-23.05-5.92c-8.29-1.68-17.32-3.09-27.55-4.28s-21.65-2.16-34.71-3-27.75-1.43-44.52-1.94l-57-1.28L544.61,4l-92.39-.56Zm48,87.65,133.24.76,50.26,1c13.84.39,24.4.85,30.6,1.37,8.06.68,15.74,1.53,23.09,2.55q10.57,1.47,21,3.63c6.7,1.41,13.08,3,19.19,4.8s11.95,3.81,17.55,6a170.08,170.08,0,0,1,16.1,7.36,161,161,0,0,1,14.89,8.78A167,167,0,0,1,840,137.65q6.72,5.52,13,11.85a174.46,174.46,0,0,1,12.4,13.66,147.24,147.24,0,0,1,19.24,30.58,168.7,168.7,0,0,1,7.13,17.84c2.13,6.3,4,13,5.71,20.15q2.64,11.39,4.42,22.93c1.27,8.16,2.36,16.86,3.29,26.18s1.69,19.25,2.32,29.88c.5,8.53.94,19.78,1.31,33.06l.94,45.31.71,111-.81,110.87-1,45.18L907.37,689c-.93,15.38-1.91,28.31-3.08,39.57-.59,5.63-1.23,10.84-1.94,15.72q-1,6.93-2.35,13.79-1.25,6.27-2.89,12.43-1.58,5.89-3.53,11.66t-4.3,11.46q-2.46,6-5.18,11.85-2.43,5.24-5.11,10.19t-5.67,9.62q-3,4.66-6.21,9.07t-6.78,8.51q-3.52,4.13-7.35,8c-2.55,2.57-5.19,5-7.94,7.44s-5.58,4.68-8.52,6.89-6,4.34-9.13,6.37-6.39,4-9.74,5.85-6.81,3.64-10.36,5.33-7.28,3.33-11,4.82-7.72,3-11.64,4.32A261.83,261.83,0,0,1,759.44,899q-13.83,3.19-27.89,5.22c-3.6.52-11.88,1-23.74,1.48L662.63,907l-128.09,1.67-134.08.21-52.65-.56-34.19-1.07-25.21-1.77c-7.83-.66-15.11-1.39-21.93-2.23s-13.17-1.75-19.15-2.8q-8.49-1.47-16.87-3.51-7.64-1.85-15.11-4.32c-4.8-1.6-9.38-3.35-13.85-5.28s-8.79-4-13.09-6.35-8.54-4.81-12.83-7.54c-3.24-2.06-6.38-4.15-9.39-6.35s-5.93-4.42-8.74-6.72-5.49-4.69-8.09-7.14-5.07-5-7.47-7.58-4.68-5.29-6.87-8.07-4.3-5.66-6.29-8.6-3.93-6.05-5.73-9.18-3.54-6.42-5.18-9.78-3.23-6.92-4.67-10.45-2.86-7.3-4.16-11.14a246.16,246.16,0,0,1-6.91-24.52c-2-8.7-3.69-17.94-5.14-27.79s-2.6-20.29-3.52-31.39c-.68-8.18-1.22-20.91-1.64-37l-.87-57.13L91.23,465l2.51-139.17,1.91-49,1.09-16.21a90.84,90.84,0,0,1,1.16-9.46c1.31-6.33,2.64-12.22,4-17.74q1.92-7.82,4.27-15.5c1.48-4.84,3-9.37,4.72-13.66s3.41-8.25,5.39-12.25,4-7.61,6.26-11.23,4.68-7.14,7.34-10.64,5.5-6.95,8.61-10.45,6.46-7,10.1-10.67q6.38-6.41,13.24-12.26a167.3,167.3,0,0,1,13.52-10.35,138.77,138.77,0,0,1,14.22-8.63A151.22,151.22,0,0,1,205,110.61c5.37-2.12,11-4,17-5.73q9.42-2.64,19-4.51c6.73-1.32,13.88-2.47,21.51-3.47s15.76-1.87,24.44-2.62c6.05-.53,16.49-1,30.23-1.38l50-1,133-.81Z"/></svg>